<svg xmlns="http://www.w3.org/2000/svg" viewBox="0 0 100.71 112.82"><defs><style>.cls-1{fill:#86c3d0;}.cls-2{fill:#fff;}.cls-3{font-size:12px;fill:#1d1d1b;font-family:MyriadPro-Regular, Myriad Pro;}.cls-4{letter-spacing:-0.01em;}</style></defs><g id="API"><path class="cls-1" d="M50.35,13.37a43,43,0,1,0,43.05,43A43,43,0,0,0,50.35,13.37Z"/><path class="cls-2" d="M63.8,77.09a4.83,4.83,0,1,1,3.69-7.92,4.74,4.74,0,0,1,1.13,3.09A4.83,4.83,0,0,1,63.8,77.09Zm0-7.93a3.11,3.11,0,1,0,2.38,1.12A3.1,3.1,0,0,0,63.8,69.16Z"/><path class="cls-2" d="M51.5,43.68a4.85,4.85,0,0,1-4.77-4.14,5,5,0,0,1,0-.69,4.83,4.83,0,0,1,9.65,0,3.45,3.45,0,0,1-.07.74A4.81,4.81,0,0,1,51.5,43.68Zm0-7.93a3.1,3.1,0,0,0-3.1,3.1,3.25,3.25,0,0,0,0,.44,3.1,3.1,0,0,0,6.14,0,2.66,2.66,0,0,0,0-.45A3.11,3.11,0,0,0,51.5,35.75Z"/><path class="cls-2" d="M33.64,70.15a4.83,4.83,0,0,1-1.37-9.46,5,5,0,0,1,1.37-.19,4.82,4.82,0,0,1,4.82,4.82,4.87,4.87,0,0,1-2.71,4.35A4.73,4.73,0,0,1,33.64,70.15Zm0-7.93a3,3,0,0,0-.89.13,3.1,3.1,0,0,0,.89,6.08A3,3,0,0,0,35,68.12a3.11,3.11,0,0,0-1.35-5.9Z"/><path class="cls-2" d="M32.18,56.35h-.12a.87.87,0,0,1-.73-1A20.47,20.47,0,0,1,42,40.33a.86.86,0,1,1,.8,1.52A18.77,18.77,0,0,0,33,55.61.86.86,0,0,1,32.18,56.35Z"/><path class="cls-2" d="M51.5,78.79a20.17,20.17,0,0,1-12.27-4.11.86.86,0,0,1-.17-1.21.85.85,0,0,1,1.2-.16A18.52,18.52,0,0,0,51.5,77.07,18.23,18.23,0,0,0,55,76.73a.87.87,0,0,1,.33,1.7A20.87,20.87,0,0,1,51.5,78.79Z"/><path class="cls-2" d="M70,65.42a.84.84,0,0,1-.27,0,.86.86,0,0,1-.54-1.09,18.71,18.71,0,0,0-8.55-22.17.86.86,0,1,1,.85-1.5,20.42,20.42,0,0,1,9.33,24.21A.87.87,0,0,1,70,65.42Z"/></g><g id="HOSTING"><text class="cls-3" transform="translate(17.93 -4.98)">JSON <tspan class="cls-4" x="29.06" y="0">t</tspan><tspan x="32.96" y="0">o JSON</tspan></text></g></svg>